<svg width="148" height="148" viewBox="0 0 148 148" fill="none" xmlns="http://www.w3.org/2000/svg">
<path d="M30.8333 20.5C30.8333 19.3954 31.7288 18.5 32.8333 18.5H73.75C73.8881 18.5 74 18.6119 74 18.75V59.6667C74 60.7712 74.8954 61.6667 76 61.6667H116.917C117.055 61.6667 117.167 61.7786 117.167 61.9167V127.5C117.167 128.605 116.271 129.5 115.167 129.5H32.8333C31.7288 129.5 30.8333 128.605 30.8333 127.5V20.5Z" fill="#9DE1D4"/>
<path d="M80.1667 54.5V19.1036C80.1667 18.8808 80.4359 18.7693 80.5934 18.9268L116.74 55.0732C116.897 55.2307 116.786 55.5 116.563 55.5H81.1667C80.6144 55.5 80.1667 55.0523 80.1667 54.5Z" fill="#00CFA6"/>
<path d="M52.4167 83.25L89.4167 83.25" stroke="#222222" stroke-linecap="round"/>
<path d="M52.4167 101.75L83.25 101.75" stroke="#222222" stroke-linecap="round"/>
</svg>
