<svg width="148" height="148" viewBox="0 0 148 148" fill="none" xmlns="http://www.w3.org/2000/svg">
<g filter="url(#filter0_d_1354_3396)">
<rect x="22" y="28" width="20" height="20" rx="4" fill="#0D7C66"/>
</g>
<g filter="url(#filter1_d_1354_3396)">
<rect x="50" y="28" width="20" height="20" rx="4" fill="#0D7C66"/>
</g>
<g filter="url(#filter2_d_1354_3396)">
<rect x="106" y="28" width="20" height="20" rx="4" fill="#0D7C66"/>
</g>
<g filter="url(#filter3_d_1354_3396)">
<rect x="78" y="28" width="20" height="20" rx="4" fill="#0D7C66"/>
</g>
<path d="M28.5795 34.2102V33.2727H35.125V34.2102H32.3807V42H31.3239V34.2102H28.5795Z" fill="white"/>
<path d="M57.0568 42V33.2727H62.3239V34.2102H58.1136V37.1591H62.0511V38.0966H58.1136V41.0625H62.392V42H57.0568Z" fill="white"/>
<path d="M113.057 42V33.2727H118.324V34.2102H114.114V37.1591H118.051V38.0966H114.114V41.0625H118.392V42H113.057Z" fill="white"/>
<path d="M85.0568 42V33.2727H88.0057C88.6875 33.2727 89.2472 33.3892 89.6847 33.6222C90.1222 33.8523 90.446 34.169 90.6562 34.5724C90.8665 34.9759 90.9716 35.4347 90.9716 35.9489C90.9716 36.4631 90.8665 36.919 90.6562 37.3168C90.446 37.7145 90.1236 38.027 89.6889 38.2543C89.2543 38.4787 88.6989 38.5909 88.0227 38.5909H85.6364V37.6364H87.9886C88.4545 37.6364 88.8295 37.5682 89.1136 37.4318C89.4006 37.2955 89.608 37.1023 89.7358 36.8523C89.8665 36.5994 89.9318 36.2983 89.9318 35.9489C89.9318 35.5994 89.8665 35.294 89.7358 35.0327C89.6051 34.7713 89.3963 34.5696 89.1094 34.4276C88.8224 34.2827 88.4432 34.2102 87.9716 34.2102H86.1136V42H85.0568ZM89.1648 38.0795L91.3125 42H90.0852L87.9716 38.0795H89.1648Z" fill="white"/>
<g filter="url(#filter4_d_1354_3396)">
<rect x="11" y="74" width="126" height="20" rx="4" fill="#EDEDED"/>
</g>
<path d="M29.2969 88H28.2813L31.2188 80H32.2188L35.1563 88H34.1406L31.75 81.2656H31.6875L29.2969 88ZM29.6719 84.875H33.7656V85.7344H29.6719V84.875ZM36.2773 88V82H37.168V82.9062H37.2305C37.3398 82.6094 37.5378 82.3685 37.8242 82.1836C38.1107 81.9987 38.4336 81.9062 38.793 81.9062C38.8607 81.9062 38.9453 81.9076 39.0469 81.9102C39.1484 81.9128 39.2253 81.9167 39.2773 81.9219V82.8594C39.2461 82.8516 39.1745 82.8398 39.0625 82.8242C38.9531 82.806 38.8372 82.7969 38.7148 82.7969C38.4232 82.7969 38.1628 82.8581 37.9336 82.9805C37.707 83.1003 37.5273 83.2669 37.3945 83.4805C37.2643 83.6914 37.1992 83.9323 37.1992 84.2031V88H36.2773ZM40.3701 88V82H41.2607V82.9062H41.3232C41.4326 82.6094 41.6305 82.3685 41.917 82.1836C42.2035 81.9987 42.5264 81.9062 42.8857 81.9062C42.9535 81.9062 43.0381 81.9076 43.1396 81.9102C43.2412 81.9128 43.318 81.9167 43.3701 81.9219V82.8594C43.3389 82.8516 43.2673 82.8398 43.1553 82.8242C43.0459 82.806 42.93 82.7969 42.8076 82.7969C42.516 82.7969 42.2555 82.8581 42.0264 82.9805C41.7998 83.1003 41.6201 83.2669 41.4873 83.4805C41.3571 83.6914 41.292 83.9323 41.292 84.2031V88H40.3701ZM46.2285 88.1406C45.8483 88.1406 45.5033 88.069 45.1934 87.9258C44.8835 87.7799 44.6374 87.5703 44.4551 87.2969C44.2728 87.0208 44.1816 86.6875 44.1816 86.2969C44.1816 85.9531 44.2493 85.6745 44.3848 85.4609C44.5202 85.2448 44.7012 85.0755 44.9277 84.9531C45.1543 84.8307 45.4043 84.7396 45.6777 84.6797C45.9538 84.6172 46.2311 84.5677 46.5098 84.5313C46.8743 84.4844 47.1699 84.4492 47.3965 84.4258C47.6257 84.3997 47.7923 84.3568 47.8965 84.2969C48.0033 84.237 48.0566 84.1328 48.0566 83.9844V83.9531C48.0566 83.5677 47.9512 83.2682 47.7402 83.0547C47.5319 82.8411 47.2155 82.7344 46.791 82.7344C46.3509 82.7344 46.0059 82.8307 45.7559 83.0234C45.5059 83.2161 45.3301 83.4219 45.2285 83.6406L44.3535 83.3281C44.5098 82.9635 44.7181 82.6797 44.9785 82.4766C45.2415 82.2708 45.528 82.1276 45.8379 82.0469C46.1504 81.9635 46.4577 81.9219 46.7598 81.9219C46.9525 81.9219 47.1738 81.9453 47.4238 81.9922C47.6764 82.0365 47.9199 82.1289 48.1543 82.2695C48.3913 82.4102 48.5879 82.6224 48.7441 82.9062C48.9004 83.1901 48.9785 83.5703 48.9785 84.0469V88H48.0566V87.1875H48.0098C47.9473 87.3177 47.8431 87.457 47.6973 87.6055C47.5514 87.7539 47.3574 87.8802 47.1152 87.9844C46.873 88.0885 46.5775 88.1406 46.2285 88.1406ZM46.3691 87.3125C46.7337 87.3125 47.041 87.2409 47.291 87.0977C47.5436 86.9544 47.7337 86.7695 47.8613 86.543C47.9915 86.3164 48.0566 86.0781 48.0566 85.8281V84.9844C48.0176 85.0312 47.9316 85.0742 47.7988 85.1133C47.6686 85.1497 47.5176 85.1823 47.3457 85.2109C47.1764 85.237 47.0111 85.2604 46.8496 85.2812C46.6908 85.2995 46.5618 85.3151 46.4629 85.3281C46.2233 85.3594 45.9993 85.4102 45.791 85.4805C45.5853 85.5482 45.4186 85.651 45.291 85.7891C45.166 85.9245 45.1035 86.1094 45.1035 86.3437C45.1035 86.6641 45.222 86.9062 45.459 87.0703C45.6986 87.2318 46.002 87.3125 46.3691 87.3125ZM53.083 90.375C52.6377 90.375 52.2549 90.3177 51.9346 90.2031C51.6143 90.0911 51.3473 89.9427 51.1338 89.7578C50.9229 89.5755 50.7549 89.3802 50.6299 89.1719L51.3643 88.6563C51.4476 88.7656 51.5531 88.8906 51.6807 89.0312C51.8083 89.1745 51.9827 89.2982 52.2041 89.4023C52.4281 89.5091 52.721 89.5625 53.083 89.5625C53.5674 89.5625 53.9671 89.4453 54.2822 89.2109C54.5973 88.9766 54.7549 88.6094 54.7549 88.1094V86.8906H54.6768C54.609 87 54.5127 87.1354 54.3877 87.2969C54.2653 87.4557 54.0882 87.5977 53.8564 87.7227C53.6273 87.8451 53.3174 87.9062 52.9268 87.9062C52.4424 87.9062 52.0075 87.7917 51.6221 87.5625C51.2393 87.3333 50.9359 87 50.7119 86.5625C50.4906 86.125 50.3799 85.5937 50.3799 84.9687C50.3799 84.3542 50.488 83.819 50.7041 83.3633C50.9202 82.9049 51.221 82.5508 51.6064 82.3008C51.9919 82.0482 52.4372 81.9219 52.9424 81.9219C53.333 81.9219 53.6429 81.987 53.8721 82.1172C54.1038 82.2448 54.2809 82.3906 54.4033 82.5547C54.5283 82.7161 54.6247 82.849 54.6924 82.9531H54.7861V82H55.6768V88.1719C55.6768 88.6875 55.5596 89.1068 55.3252 89.4297C55.0934 89.7552 54.7809 89.9935 54.3877 90.1445C53.9971 90.2982 53.5622 90.375 53.083 90.375ZM53.0518 87.0781C53.4215 87.0781 53.734 86.9935 53.9893 86.8242C54.2445 86.6549 54.4385 86.4115 54.5713 86.0938C54.7041 85.776 54.7705 85.3958 54.7705 84.9531C54.7705 84.5208 54.7054 84.1393 54.5752 83.8086C54.445 83.4779 54.2523 83.2187 53.9971 83.0312C53.7419 82.8437 53.4268 82.75 53.0518 82.75C52.6611 82.75 52.3356 82.849 52.0752 83.0469C51.8174 83.2448 51.6234 83.5104 51.4932 83.8438C51.3656 84.1771 51.3018 84.5469 51.3018 84.9531C51.3018 85.3698 51.3669 85.7383 51.4971 86.0586C51.6299 86.3763 51.8252 86.6263 52.083 86.8086C52.3434 86.9883 52.6663 87.0781 53.0518 87.0781ZM59.8799 88.125C59.3018 88.125 58.8031 87.9974 58.3838 87.7422C57.9671 87.4844 57.6455 87.125 57.4189 86.6641C57.195 86.2005 57.083 85.6615 57.083 85.0469C57.083 84.4323 57.195 83.8906 57.4189 83.4219C57.6455 82.9505 57.9606 82.5833 58.3643 82.3203C58.7705 82.0547 59.2445 81.9219 59.7861 81.9219C60.0986 81.9219 60.4072 81.974 60.7119 82.0781C61.0166 82.1823 61.2939 82.3516 61.5439 82.5859C61.7939 82.8177 61.9932 83.125 62.1416 83.5078C62.29 83.8906 62.3643 84.362 62.3643 84.9219V85.3125H57.7393V84.5156H61.4268C61.4268 84.1771 61.359 83.875 61.2236 83.6094C61.0908 83.3437 60.9007 83.1341 60.6533 82.9805C60.4085 82.8268 60.1195 82.75 59.7861 82.75C59.4189 82.75 59.1012 82.8411 58.833 83.0234C58.5674 83.2031 58.363 83.4375 58.2197 83.7266C58.0765 84.0156 58.0049 84.3255 58.0049 84.6562V85.1875C58.0049 85.6406 58.083 86.0247 58.2393 86.3398C58.3981 86.6523 58.6182 86.8906 58.8994 87.0547C59.1807 87.2161 59.5075 87.2969 59.8799 87.2969C60.1221 87.2969 60.3408 87.263 60.5361 87.1953C60.734 87.125 60.9046 87.0208 61.0479 86.8828C61.1911 86.7422 61.3018 86.5677 61.3799 86.3594L62.2705 86.6094C62.1768 86.9115 62.0192 87.1771 61.7979 87.4062C61.5765 87.6328 61.3031 87.8099 60.9775 87.9375C60.652 88.0625 60.2861 88.125 59.8799 88.125ZM69.4697 82V82.7812H66.3604V82H69.4697ZM67.2666 80.5625H68.1885V86.2812C68.1885 86.5417 68.2262 86.737 68.3018 86.8672C68.3799 86.9948 68.4788 87.0807 68.5986 87.125C68.721 87.1667 68.8499 87.1875 68.9854 87.1875C69.0869 87.1875 69.1702 87.1823 69.2354 87.1719C69.3005 87.1589 69.3525 87.1484 69.3916 87.1406L69.5791 87.9687C69.5166 87.9922 69.4294 88.0156 69.3174 88.0391C69.2054 88.0651 69.0635 88.0781 68.8916 88.0781C68.6312 88.0781 68.376 88.0221 68.126 87.9102C67.8786 87.7982 67.6729 87.6276 67.5088 87.3984C67.3473 87.1693 67.2666 86.8802 67.2666 86.5312V80.5625ZM71.9072 84.3906V88H70.9854V80H71.9072V82.9375H71.9854C72.126 82.6276 72.3369 82.3815 72.6182 82.1992C72.902 82.0143 73.2796 81.9219 73.751 81.9219C74.1598 81.9219 74.5179 82.0039 74.8252 82.168C75.1325 82.3294 75.3708 82.5781 75.54 82.9141C75.7119 83.2474 75.7979 83.6719 75.7979 84.1875V88H74.876V84.25C74.876 83.7734 74.7523 83.4049 74.5049 83.1445C74.2601 82.8815 73.9202 82.75 73.4854 82.75C73.1833 82.75 72.9124 82.8138 72.6729 82.9414C72.4359 83.069 72.2484 83.2552 72.1104 83.5C71.9749 83.7448 71.9072 84.0417 71.9072 84.3906ZM80 88.125C79.4219 88.125 78.9232 87.9974 78.5039 87.7422C78.0872 87.4844 77.7656 87.125 77.5391 86.6641C77.3151 86.2005 77.2031 85.6615 77.2031 85.0469C77.2031 84.4323 77.3151 83.8906 77.5391 83.4219C77.7656 82.9505 78.0807 82.5833 78.4844 82.3203C78.8906 82.0547 79.3646 81.9219 79.9062 81.9219C80.2188 81.9219 80.5273 81.974 80.832 82.0781C81.1367 82.1823 81.4141 82.3516 81.6641 82.5859C81.9141 82.8177 82.1133 83.125 82.2617 83.5078C82.4102 83.8906 82.4844 84.362 82.4844 84.9219V85.3125H77.8594V84.5156H81.5469C81.5469 84.1771 81.4792 83.875 81.3438 83.6094C81.2109 83.3437 81.0208 83.1341 80.7734 82.9805C80.5286 82.8268 80.2396 82.75 79.9062 82.75C79.5391 82.75 79.2214 82.8411 78.9531 83.0234C78.6875 83.2031 78.4831 83.4375 78.3398 83.7266C78.1966 84.0156 78.125 84.3255 78.125 84.6562V85.1875C78.125 85.6406 78.2031 86.0247 78.3594 86.3398C78.5182 86.6523 78.7383 86.8906 79.0195 87.0547C79.3008 87.2161 79.6276 87.2969 80 87.2969C80.2422 87.2969 80.4609 87.263 80.6563 87.1953C80.8542 87.125 81.0247 87.0208 81.168 86.8828C81.3112 86.7422 81.4219 86.5677 81.5 86.3594L82.3906 86.6094C82.2969 86.9115 82.1393 87.1771 81.918 87.4062C81.6966 87.6328 81.4232 87.8099 81.0977 87.9375C80.7721 88.0625 80.4063 88.125 80 88.125ZM87.9023 80V88H86.9805V80H87.9023ZM92.1064 88.125C91.5283 88.125 91.0296 87.9974 90.6104 87.7422C90.1937 87.4844 89.8721 87.125 89.6455 86.6641C89.4215 86.2005 89.3096 85.6615 89.3096 85.0469C89.3096 84.4323 89.4215 83.8906 89.6455 83.4219C89.8721 82.9505 90.1872 82.5833 90.5908 82.3203C90.9971 82.0547 91.471 81.9219 92.0127 81.9219C92.3252 81.9219 92.6338 81.974 92.9385 82.0781C93.2432 82.1823 93.5205 82.3516 93.7705 82.5859C94.0205 82.8177 94.2197 83.125 94.3682 83.5078C94.5166 83.8906 94.5908 84.362 94.5908 84.9219V85.3125H89.9658V84.5156H93.6533C93.6533 84.1771 93.5856 83.875 93.4502 83.6094C93.3174 83.3437 93.1273 83.1341 92.8799 82.9805C92.6351 82.8268 92.346 82.75 92.0127 82.75C91.6455 82.75 91.3278 82.8411 91.0596 83.0234C90.7939 83.2031 90.5895 83.4375 90.4463 83.7266C90.3031 84.0156 90.2314 84.3255 90.2314 84.6562V85.1875C90.2314 85.6406 90.3096 86.0247 90.4658 86.3398C90.6247 86.6523 90.8447 86.8906 91.126 87.0547C91.4072 87.2161 91.734 87.2969 92.1064 87.2969C92.3486 87.2969 92.5674 87.263 92.7627 87.1953C92.9606 87.125 93.1312 87.0208 93.2744 86.8828C93.4176 86.7422 93.5283 86.5677 93.6064 86.3594L94.4971 86.6094C94.4033 86.9115 94.2458 87.1771 94.0244 87.4062C93.8031 87.6328 93.5296 87.8099 93.2041 87.9375C92.8786 88.0625 92.5127 88.125 92.1064 88.125ZM98.6025 82V82.7812H95.4932V82H98.6025ZM96.3994 80.5625H97.3213V86.2812C97.3213 86.5417 97.359 86.737 97.4346 86.8672C97.5127 86.9948 97.6117 87.0807 97.7314 87.125C97.8538 87.1667 97.9827 87.1875 98.1182 87.1875C98.2197 87.1875 98.3031 87.1823 98.3682 87.1719C98.4333 87.1589 98.4854 87.1484 98.5244 87.1406L98.7119 87.9687C98.6494 87.9922 98.5622 88.0156 98.4502 88.0391C98.3382 88.0651 98.1963 88.0781 98.0244 88.0781C97.764 88.0781 97.5088 88.0221 97.2588 87.9102C97.0114 87.7982 96.8057 87.6276 96.6416 87.3984C96.4801 87.1693 96.3994 86.8802 96.3994 86.5312V80.5625ZM102.599 82V82.7812H99.4893V82H102.599ZM100.396 80.5625H101.317V86.2812C101.317 86.5417 101.355 86.737 101.431 86.8672C101.509 86.9948 101.608 87.0807 101.728 87.125C101.85 87.1667 101.979 87.1875 102.114 87.1875C102.216 87.1875 102.299 87.1823 102.364 87.1719C102.429 87.1589 102.481 87.1484 102.521 87.1406L102.708 87.9687C102.646 87.9922 102.558 88.0156 102.446 88.0391C102.334 88.0651 102.192 88.0781 102.021 88.0781C101.76 88.0781 101.505 88.0221 101.255 87.9102C101.007 87.7982 100.802 87.6276 100.638 87.3984C100.476 87.1693 100.396 86.8802 100.396 86.5312V80.5625ZM106.437 88.125C105.858 88.125 105.36 87.9974 104.94 87.7422C104.524 87.4844 104.202 87.125 103.976 86.6641C103.752 86.2005 103.64 85.6615 103.64 85.0469C103.64 84.4323 103.752 83.8906 103.976 83.4219C104.202 82.9505 104.517 82.5833 104.921 82.3203C105.327 82.0547 105.801 81.9219 106.343 81.9219C106.655 81.9219 106.964 81.974 107.269 82.0781C107.573 82.1823 107.851 82.3516 108.101 82.5859C108.351 82.8177 108.55 83.125 108.698 83.5078C108.847 83.8906 108.921 84.362 108.921 84.9219V85.3125H104.296V84.5156H107.983C107.983 84.1771 107.916 83.875 107.78 83.6094C107.647 83.3437 107.457 83.1341 107.21 82.9805C106.965 82.8268 106.676 82.75 106.343 82.75C105.976 82.75 105.658 82.8411 105.39 83.0234C105.124 83.2031 104.92 83.4375 104.776 83.7266C104.633 84.0156 104.562 84.3255 104.562 84.6562V85.1875C104.562 85.6406 104.64 86.0247 104.796 86.3398C104.955 86.6523 105.175 86.8906 105.456 87.0547C105.737 87.2161 106.064 87.2969 106.437 87.2969C106.679 87.2969 106.897 87.263 107.093 87.1953C107.291 87.125 107.461 87.0208 107.604 86.8828C107.748 86.7422 107.858 86.5677 107.937 86.3594L108.827 86.6094C108.733 86.9115 108.576 87.1771 108.354 87.4062C108.133 87.6328 107.86 87.8099 107.534 87.9375C107.209 88.0625 106.843 88.125 106.437 88.125ZM110.323 88V82H111.214V82.9062H111.276C111.386 82.6094 111.584 82.3685 111.87 82.1836C112.157 81.9987 112.479 81.9062 112.839 81.9062C112.907 81.9062 112.991 81.9076 113.093 81.9102C113.194 81.9128 113.271 81.9167 113.323 81.9219V82.8594C113.292 82.8516 113.22 82.8398 113.108 82.8242C112.999 82.806 112.883 82.7969 112.761 82.7969C112.469 82.7969 112.209 82.8581 111.979 82.9805C111.753 83.1003 111.573 83.2669 111.44 83.4805C111.31 83.6914 111.245 83.9323 111.245 84.2031V88H110.323ZM118.666 83.3437L117.838 83.5781C117.786 83.4401 117.709 83.306 117.607 83.1758C117.508 83.043 117.373 82.9336 117.201 82.8477C117.029 82.7617 116.809 82.7187 116.541 82.7187C116.174 82.7187 115.868 82.8034 115.623 82.9727C115.381 83.1393 115.26 83.3516 115.26 83.6094C115.26 83.8385 115.343 84.0195 115.51 84.1523C115.676 84.2852 115.937 84.3958 116.291 84.4844L117.182 84.7031C117.718 84.8333 118.118 85.0326 118.381 85.3008C118.644 85.5664 118.775 85.9089 118.775 86.3281C118.775 86.6719 118.676 86.9792 118.479 87.25C118.283 87.5208 118.01 87.7344 117.658 87.8906C117.307 88.0469 116.898 88.125 116.432 88.125C115.82 88.125 115.313 87.9922 114.912 87.7266C114.511 87.4609 114.257 87.0729 114.15 86.5625L115.025 86.3437C115.109 86.6667 115.266 86.9089 115.498 87.0703C115.732 87.2318 116.038 87.3125 116.416 87.3125C116.846 87.3125 117.187 87.2214 117.439 87.0391C117.695 86.8542 117.822 86.6328 117.822 86.375C117.822 86.1667 117.749 85.9922 117.604 85.8516C117.458 85.7083 117.234 85.6016 116.932 85.5312L115.932 85.2969C115.382 85.1667 114.979 84.9648 114.721 84.6914C114.465 84.4154 114.338 84.0703 114.338 83.6562C114.338 83.3177 114.433 83.0182 114.623 82.7578C114.816 82.4974 115.077 82.293 115.408 82.1445C115.742 81.9961 116.119 81.9219 116.541 81.9219C117.135 81.9219 117.601 82.0521 117.939 82.3125C118.281 82.5729 118.523 82.9167 118.666 83.3437Z" fill="#6C6C6C"/>
<defs>
<filter id="filter0_d_1354_3396" x="18" y="28" width="28" height="28" filterUnits="userSpaceOnUse" color-interpolation-filters="sRGB">
<feFlood flood-opacity="0" result="BackgroundImageFix"/>
<feColorMatrix in="SourceAlpha" type="matrix" values="0 0 0 0 0 0 0 0 0 0 0 0 0 0 0 0 0 0 127 0" result="hardAlpha"/>
<feOffset dy="4"/>
<feGaussianBlur stdDeviation="2"/>
<feComposite in2="hardAlpha" operator="out"/>
<feColorMatrix type="matrix" values="0 0 0 0 0 0 0 0 0 0 0 0 0 0 0 0 0 0 0.25 0"/>
<feBlend mode="normal" in2="BackgroundImageFix" result="effect1_dropShadow_1354_3396"/>
<feBlend mode="normal" in="SourceGraphic" in2="effect1_dropShadow_1354_3396" result="shape"/>
</filter>
<filter id="filter1_d_1354_3396" x="46" y="28" width="28" height="28" filterUnits="userSpaceOnUse" color-interpolation-filters="sRGB">
<feFlood flood-opacity="0" result="BackgroundImageFix"/>
<feColorMatrix in="SourceAlpha" type="matrix" values="0 0 0 0 0 0 0 0 0 0 0 0 0 0 0 0 0 0 127 0" result="hardAlpha"/>
<feOffset dy="4"/>
<feGaussianBlur stdDeviation="2"/>
<feComposite in2="hardAlpha" operator="out"/>
<feColorMatrix type="matrix" values="0 0 0 0 0 0 0 0 0 0 0 0 0 0 0 0 0 0 0.25 0"/>
<feBlend mode="normal" in2="BackgroundImageFix" result="effect1_dropShadow_1354_3396"/>
<feBlend mode="normal" in="SourceGraphic" in2="effect1_dropShadow_1354_3396" result="shape"/>
</filter>
<filter id="filter2_d_1354_3396" x="102" y="28" width="28" height="28" filterUnits="userSpaceOnUse" color-interpolation-filters="sRGB">
<feFlood flood-opacity="0" result="BackgroundImageFix"/>
<feColorMatrix in="SourceAlpha" type="matrix" values="0 0 0 0 0 0 0 0 0 0 0 0 0 0 0 0 0 0 127 0" result="hardAlpha"/>
<feOffset dy="4"/>
<feGaussianBlur stdDeviation="2"/>
<feComposite in2="hardAlpha" operator="out"/>
<feColorMatrix type="matrix" values="0 0 0 0 0 0 0 0 0 0 0 0 0 0 0 0 0 0 0.25 0"/>
<feBlend mode="normal" in2="BackgroundImageFix" result="effect1_dropShadow_1354_3396"/>
<feBlend mode="normal" in="SourceGraphic" in2="effect1_dropShadow_1354_3396" result="shape"/>
</filter>
<filter id="filter3_d_1354_3396" x="74" y="28" width="28" height="28" filterUnits="userSpaceOnUse" color-interpolation-filters="sRGB">
<feFlood flood-opacity="0" result="BackgroundImageFix"/>
<feColorMatrix in="SourceAlpha" type="matrix" values="0 0 0 0 0 0 0 0 0 0 0 0 0 0 0 0 0 0 127 0" result="hardAlpha"/>
<feOffset dy="4"/>
<feGaussianBlur stdDeviation="2"/>
<feComposite in2="hardAlpha" operator="out"/>
<feColorMatrix type="matrix" values="0 0 0 0 0 0 0 0 0 0 0 0 0 0 0 0 0 0 0.25 0"/>
<feBlend mode="normal" in2="BackgroundImageFix" result="effect1_dropShadow_1354_3396"/>
<feBlend mode="normal" in="SourceGraphic" in2="effect1_dropShadow_1354_3396" result="shape"/>
</filter>
<filter id="filter4_d_1354_3396" x="4" y="71" width="140" height="34" filterUnits="userSpaceOnUse" color-interpolation-filters="sRGB">
<feFlood flood-opacity="0" result="BackgroundImageFix"/>
<feColorMatrix in="SourceAlpha" type="matrix" values="0 0 0 0 0 0 0 0 0 0 0 0 0 0 0 0 0 0 127 0" result="hardAlpha"/>
<feOffset dy="4"/>
<feGaussianBlur stdDeviation="3.5"/>
<feComposite in2="hardAlpha" operator="out"/>
<feColorMatrix type="matrix" values="0 0 0 0 0 0 0 0 0 0 0 0 0 0 0 0 0 0 0.25 0"/>
<feBlend mode="normal" in2="BackgroundImageFix" result="effect1_dropShadow_1354_3396"/>
<feBlend mode="normal" in="SourceGraphic" in2="effect1_dropShadow_1354_3396" result="shape"/>
</filter>
</defs>
</svg>
