<svg width="148" height="148" viewBox="0 0 148 148" fill="none" xmlns="http://www.w3.org/2000/svg">
<path d="M26.1316 104C25.4634 104 24.8225 103.737 24.3501 103.268C23.8776 102.799 23.6122 102.164 23.6122 101.501V88.1602C22.23 88.8143 20.6982 89.0945 19.1717 88.9725C17.8793 88.8783 16.6236 88.5026 15.4941 87.8722C14.3647 87.2418 13.3892 86.3722 12.637 85.3252C11.8849 84.2783 11.3746 83.0797 11.1425 81.8148C10.9105 80.5499 10.9623 79.2499 11.2943 78.0071C11.6263 76.7644 12.2304 75.6095 13.0635 74.6247C13.8966 73.6399 14.9382 72.8494 16.1143 72.3094C17.2905 71.7694 18.5721 71.4933 19.868 71.5006C21.1639 71.5079 22.4423 71.7985 23.6122 72.3517V59.0113C23.6122 58.3484 23.8776 57.7127 24.3501 57.244C24.8225 56.7753 25.4634 56.5119 26.1316 56.5119H40.8385C40.1792 55.1408 39.8967 53.6211 40.0197 52.1068C40.1147 50.8246 40.4933 49.5789 41.1288 48.4584C41.7642 47.3379 42.6409 46.3702 43.6962 45.624C44.7516 44.8779 45.9597 44.3717 47.2347 44.1414C48.5097 43.9112 49.8202 43.9626 51.0729 44.292C52.3256 44.6213 53.4898 45.2206 54.4824 46.0471C55.4751 46.8735 56.272 47.9069 56.8163 49.0737C57.3606 50.2405 57.639 51.5119 57.6316 52.7975C57.6242 54.0832 57.3313 55.3514 56.7737 56.5119H71.4806C72.1488 56.5119 72.7896 56.7753 73.2621 57.244C73.7346 57.7127 74 58.3484 74 59.0113V72.3517C72.6178 71.6976 71.086 71.4174 69.5596 71.5394C68.2671 71.6336 67.0115 72.0093 65.882 72.6397C64.7525 73.2701 63.777 74.1397 63.0249 75.1867C62.2727 76.2337 61.7625 77.4322 61.5304 78.6971C61.2983 79.962 61.3501 81.2621 61.6821 82.5048C62.0141 83.7476 62.6182 84.9024 63.4513 85.8872C64.2844 86.872 65.3261 87.6625 66.5022 88.2025C67.6783 88.7425 68.9599 89.0187 70.2559 89.0114C71.5518 89.004 72.8302 88.7134 74 88.1602V101.501C74 102.164 73.7346 102.799 73.2621 103.268C72.7896 103.737 72.1488 104 71.4806 104H26.1316Z" stroke="#3F3FB8" stroke-width="2" stroke-linecap="round" stroke-linejoin="round"/>
<path d="M77.1315 104C76.4634 104 75.8225 103.737 75.3501 103.268C74.8776 102.799 74.6122 102.164 74.6122 101.501V88.1602C73.23 88.8143 71.6982 89.0945 70.1717 88.9725C68.8793 88.8783 67.6236 88.5026 66.4941 87.8722C65.3647 87.2418 64.3892 86.3722 63.637 85.3252C62.8849 84.2783 62.3746 83.0797 62.1425 81.8148C61.9105 80.5499 61.9623 79.2499 62.2943 78.0071C62.6263 76.7644 63.2304 75.6095 64.0635 74.6247C64.8966 73.6399 65.9382 72.8494 67.1143 72.3094C68.2905 71.7694 69.5721 71.4933 70.868 71.5006C72.1639 71.5079 73.4423 71.7985 74.6122 72.3517V59.0113C74.6122 58.3484 74.8776 57.7127 75.3501 57.244C75.8225 56.7753 76.4634 56.5119 77.1315 56.5119H91.8385C91.1792 55.1408 90.8967 53.6211 91.0197 52.1068C91.1147 50.8246 91.4933 49.5789 92.1288 48.4584C92.7642 47.3379 93.6408 46.3702 94.6962 45.624C95.7516 44.8779 96.9597 44.3717 98.2347 44.1414C99.5097 43.9112 100.82 43.9626 102.073 44.292C103.326 44.6213 104.49 45.2206 105.482 46.0471C106.475 46.8735 107.272 47.9069 107.816 49.0737C108.361 50.2405 108.639 51.5119 108.632 52.7975C108.624 54.0832 108.331 55.3514 107.774 56.5119H122.481C123.149 56.5119 123.79 56.7753 124.262 57.244C124.735 57.7127 125 58.3484 125 59.0113V72.3517C123.618 71.6976 122.086 71.4174 120.56 71.5394C119.267 71.6336 118.011 72.0093 116.882 72.6397C115.753 73.2701 114.777 74.1397 114.025 75.1867C113.273 76.2337 112.762 77.4323 112.53 78.6971C112.298 79.962 112.35 81.2621 112.682 82.5048C113.014 83.7476 113.618 84.9024 114.451 85.8872C115.284 86.872 116.326 87.6625 117.502 88.2025C118.678 88.7425 119.96 89.0187 121.256 89.0114C122.552 89.004 123.83 88.7134 125 88.1602V101.501C125 102.164 124.735 102.799 124.262 103.268C123.79 103.737 123.149 104 122.481 104H77.1315Z" stroke="#00CFA6" stroke-width="2" stroke-linecap="round" stroke-linejoin="round"/>
</svg>
